<?xml version="1.0" standalone="no"?>
<!DOCTYPE svg PUBLIC "-//W3C//DTD SVG 20010904//EN"
 "http://www.w3.org/TR/2001/REC-SVG-20010904/DTD/svg10.dtd">
<svg version="1.0" xmlns="http://www.w3.org/2000/svg"
 width="851.000000pt" height="315.000000pt" viewBox="0 0 851.000000 315.000000"
 preserveAspectRatio="xMidYMid meet">

<g transform="translate(0.000000,315.000000) scale(0.100000,-0.100000)"
fill="#000000" stroke="none">
<path d="M6916 2735 c-3 -8 -3 -22 0 -30 7 -17 34 -21 34 -5 0 23 19 7 30 -24
13 -40 1 -150 -31 -274 -27 -107 -287 -899 -359 -1093 -102 -275 -149 -377
-201 -433 l-48 -51 -20 20 c-47 46 -132 340 -170 590 -28 182 -59 483 -67 658
-5 107 -10 147 -19 147 -22 0 -25 -26 -25 -188 0 -457 105 -1059 212 -1214 25
-36 80 -52 122 -34 40 17 98 82 129 143 63 125 251 648 386 1073 106 335 130
427 140 534 9 98 2 140 -29 174 -24 25 -75 30 -84 7z"/>
<path d="M2173 2526 c-78 -66 -187 -404 -224 -694 l-12 -92 -99 -95 c-117
-112 -220 -185 -275 -192 -32 -4 -42 -1 -62 21 -20 21 -25 39 -29 100 l-5 75
95 93 c125 123 161 202 98 218 -67 18 -145 -43 -198 -154 -88 -185 -84 -342
10 -375 100 -35 194 4 348 143 l105 94 7 -146 c9 -186 35 -312 88 -419 48 -97
86 -133 139 -133 44 0 71 24 71 63 0 33 -20 27 -44 -13 -9 -17 -24 -30 -32
-30 -22 0 -85 106 -115 195 -36 104 -51 218 -51 390 0 154 -1 150 97 360 116
249 173 409 182 506 5 59 3 69 -16 88 -27 27 -43 27 -78 -3z m51 -77 c-2 -81
-42 -207 -130 -406 -104 -234 -106 -235 -65 -26 49 244 148 513 184 500 8 -3
12 -26 11 -68z m-584 -531 c0 -13 -13 -43 -30 -67 -31 -47 -110 -134 -117
-128 -2 2 4 23 12 47 39 111 135 216 135 148z"/>
<path d="M626 2473 c-3 -21 -6 -54 -6 -73 -1 -48 -16 -70 -81 -123 -68 -56
-159 -172 -195 -252 -32 -68 -39 -160 -15 -188 15 -19 105 -24 116 -8 3 6 -9
7 -30 4 -47 -8 -65 9 -65 61 1 89 60 193 175 310 l79 81 7 -335 c4 -184 8
-369 10 -411 l2 -75 -66 -66 c-158 -158 -195 -377 -78 -455 27 -18 48 -23 102
-23 l69 0 -6 -58 c-5 -49 -4 -60 10 -65 36 -14 55 13 56 78 1 56 12 75 74 119
181 129 348 387 450 696 100 302 108 479 31 648 -50 109 -115 153 -236 160
-93 5 -162 -13 -276 -73 -92 -48 -93 -48 -93 36 0 61 -24 69 -34 12z m474 -18
c57 -30 100 -103 126 -212 19 -81 14 -235 -11 -353 -43 -197 -153 -455 -270
-631 -59 -89 -194 -239 -214 -239 -12 0 -21 114 -24 295 l-2 150 49 23 c27 13
76 29 109 35 59 11 60 11 82 -17 15 -19 29 -27 39 -23 22 9 20 44 -3 57 -33
17 -143 12 -206 -10 -32 -11 -64 -20 -70 -20 -9 0 -15 30 -20 93 -8 115 -23
708 -18 723 5 13 145 98 188 114 107 40 187 45 245 15z m-466 -1157 c3 -57 7
-155 9 -218 l2 -115 -38 -9 c-51 -13 -86 1 -111 44 -28 47 -26 144 4 222 21
56 103 178 120 178 4 0 11 -46 14 -102z"/>
<path d="M3041 2423 c-7 -38 -14 -83 -18 -101 -3 -22 -27 -58 -63 -99 -88 -98
-133 -207 -92 -221 8 -2 12 7 12 25 0 36 111 205 125 191 3 -3 1 -47 -5 -99
-19 -158 -37 -480 -45 -764 -3 -148 -10 -331 -14 -405 -9 -145 -3 -173 32
-148 24 18 34 146 43 511 l6 299 30 34 c66 75 277 145 344 113 65 -31 96 -150
80 -303 l-7 -65 -108 -90 c-207 -172 -316 -347 -270 -433 6 -11 27 -26 46 -35
140 -58 301 153 392 512 9 34 35 63 168 186 87 80 176 161 197 180 38 33 39
33 33 9 -15 -59 -28 -171 -25 -212 3 -40 5 -43 34 -46 44 -4 82 31 145 134 50
82 68 93 69 42 0 -25 33 -40 62 -29 13 5 37 20 54 34 l29 25 0 -89 c0 -86 1
-89 32 -121 27 -27 41 -32 92 -36 104 -8 176 36 379 232 l63 61 -7 -266 c-7
-272 -5 -313 20 -322 31 -12 47 23 102 223 53 192 85 280 102 280 4 0 15 -27
25 -60 34 -118 80 -130 163 -42 67 69 194 233 194 250 0 32 -36 1 -128 -111
-55 -67 -110 -131 -121 -141 -23 -20 -17 -27 -67 92 -22 54 -45 68 -81 50 -39
-19 -57 -56 -103 -213 -23 -77 -45 -149 -50 -160 -12 -28 -12 61 1 414 7 213
7 297 -1 305 -19 19 -28 -13 -36 -126 l-7 -108 -121 -118 c-163 -158 -276
-230 -330 -209 -29 11 -49 58 -54 127 l-5 68 82 78 c131 125 175 212 117 234
-63 23 -147 -42 -207 -162 -28 -57 -116 -152 -144 -157 -5 -1 -12 27 -15 61
-4 54 -8 63 -26 66 -16 2 -35 -21 -97 -116 -43 -66 -85 -126 -94 -133 -15 -13
-16 -8 -10 57 7 69 31 218 43 262 9 33 -22 29 -44 -7 -9 -16 -38 -46 -64 -67
-26 -22 -114 -102 -195 -179 l-148 -139 -6 99 c-8 143 -36 200 -114 236 -49
23 -96 24 -186 3 -39 -9 -72 -14 -75 -12 -2 3 17 33 42 69 121 171 181 335
175 478 -1 23 -11 43 -35 67 -49 49 -99 47 -202 -6 -43 -22 -79 -40 -81 -40
-1 0 0 34 4 75 5 64 4 75 -10 75 -11 0 -18 -18 -26 -67z m266 -42 c69 -65 15
-282 -120 -484 -58 -86 -139 -187 -151 -187 -15 0 18 539 35 572 12 21 113 91
154 106 44 15 59 14 82 -7z m1226 -453 c9 -27 -80 -161 -130 -193 -24 -16 -25
-16 -18 7 16 50 62 133 91 165 33 35 50 41 57 21z m-1086 -632 c-3 -8 -11 -33
-17 -56 -33 -124 -124 -286 -199 -353 -35 -31 -45 -36 -61 -27 -24 13 -34 49
-26 94 13 67 120 208 233 307 57 49 80 61 70 35z"/>
<path d="M7127 2087 c-12 -33 -18 -125 -9 -131 16 -10 31 25 38 88 6 46 4 56
-9 56 -8 0 -17 -6 -20 -13z"/>
<path d="M7376 2011 c-3 -5 -10 -60 -16 -123 l-10 -114 -97 -174 c-54 -95
-103 -175 -110 -177 -18 -6 -28 94 -26 250 1 107 -1 137 -11 137 -33 0 -56
-207 -37 -330 13 -83 36 -116 75 -104 32 9 60 48 133 186 37 70 68 126 69 125
1 -1 -2 -103 -8 -227 -11 -252 -5 -323 28 -328 11 -2 26 3 31 10 6 7 34 99 63
203 56 202 87 288 103 282 5 -1 18 -30 28 -62 19 -64 47 -95 84 -95 22 0 89
64 163 155 l32 40 0 -37 c0 -46 36 -78 88 -78 52 0 110 64 138 150 l20 65 107
3 c139 4 142 22 3 22 l-104 0 -7 45 c-5 40 -11 48 -41 63 -34 16 -37 15 -72
-3 -25 -14 -38 -29 -43 -50 -3 -16 -26 -50 -50 -75 -24 -25 -84 -93 -133 -152
-68 -81 -93 -105 -102 -97 -7 6 -23 40 -34 75 -26 77 -53 97 -94 70 -38 -24
-65 -84 -112 -246 l-43 -145 0 175 c0 96 4 256 8 355 4 99 5 188 3 198 -5 18
-17 23 -26 8z m678 -137 c21 -20 21 -83 1 -91 -20 -7 -55 24 -55 50 0 17 25
57 36 57 1 0 10 -7 18 -16z m-21 -111 c31 -6 30 -11 -5 -95 -26 -62 -62 -96
-83 -78 -26 22 -15 136 18 178 6 7 17 10 26 7 9 -4 28 -9 44 -12z"/>
<path d="M2727 523 c-2 -4 14 -74 37 -155 47 -172 61 -186 91 -88 10 33 22 57
25 53 4 -4 15 -32 25 -61 27 -84 42 -68 86 88 41 146 46 174 27 168 -12 -4
-23 -34 -65 -178 l-19 -65 -20 60 c-28 81 -46 82 -69 5 -10 -33 -20 -58 -23
-56 -2 3 -18 55 -36 117 -28 101 -46 135 -59 112z"/>
<path d="M3230 375 c0 -131 2 -155 15 -155 13 0 15 24 15 155 0 131 -2 155
-15 155 -13 0 -15 -24 -15 -155z"/>
<path d="M3470 375 c0 -130 2 -155 15 -155 12 0 15 22 17 113 l3 112 60 -112
c42 -79 65 -113 78 -113 16 0 17 12 15 153 -3 127 -5 152 -18 152 -12 0 -16
-21 -20 -108 l-5 -108 -59 111 c-32 60 -65 110 -73 110 -10 0 -13 -32 -13
-155z"/>
<path d="M3870 375 l0 -155 70 0 c56 0 70 3 70 15 0 12 -13 15 -55 15 l-55 0
0 55 0 55 56 0 c73 0 70 24 -4 28 l-52 3 0 49 0 49 53 3 c38 2 52 7 52 18 0
12 -15 16 -67 18 l-68 3 0 -156z"/>
<path d="M4515 519 c-37 -10 -55 -34 -55 -70 0 -46 10 -59 71 -90 48 -24 59
-34 59 -54 0 -15 -10 -31 -25 -41 -23 -15 -27 -15 -50 0 -14 9 -25 25 -25 36
0 11 -7 20 -15 20 -26 0 -18 -56 11 -79 57 -45 134 -11 134 59 0 42 -9 52 -79
90 -67 37 -68 100 -1 100 30 0 46 -14 51 -44 6 -31 29 -32 29 -1 0 57 -46 90
-105 74z"/>
<path d="M4820 375 c0 -129 2 -155 15 -155 11 0 15 16 17 68 l3 67 50 0 50 0
3 -67 c2 -52 6 -68 17 -68 13 0 15 26 15 155 0 131 -2 155 -15 155 -12 0 -15
-14 -15 -70 l0 -70 -55 0 -55 0 0 70 c0 56 -3 70 -15 70 -13 0 -15 -24 -15
-155z"/>
<path d="M5303 519 c-81 -17 -117 -70 -111 -162 4 -53 8 -63 40 -93 103 -94
258 -28 258 111 0 44 -30 105 -62 124 -32 20 -86 28 -125 20z m97 -42 c14 -7
33 -28 43 -47 53 -103 -48 -211 -156 -166 -43 17 -67 60 -67 117 0 33 6 47 34
75 28 28 41 34 78 34 23 0 54 -6 68 -13z"/>
<path d="M5687 523 c-4 -3 -7 -73 -7 -155 0 -141 1 -148 20 -148 18 0 20 7 20
60 l0 60 40 0 c55 0 90 34 90 87 0 50 -22 80 -68 93 -42 11 -86 13 -95 3z
m115 -50 c40 -36 6 -103 -52 -103 l-30 0 0 60 0 60 32 0 c17 0 40 -7 50 -17z"/>
</g>
</svg>
