<?xml version="1.0" standalone="no"?>
<!DOCTYPE svg PUBLIC "-//W3C//DTD SVG 20010904//EN"
 "http://www.w3.org/TR/2001/REC-SVG-20010904/DTD/svg10.dtd">
<svg version="1.0" xmlns="http://www.w3.org/2000/svg"
 width="286.000000pt" height="180.000000pt" viewBox="0 0 286.000000 180.000000"
 preserveAspectRatio="xMidYMid meet">

<g transform="translate(0.000000,180.000000) scale(0.100000,-0.100000)"
fill="#000000" stroke="none">
<path d="M1296 1559 c-22 -10 -49 -19 -60 -18 -12 0 -15 3 -8 6 13 5 7 23 -9
23 -14 0 -77 -68 -85 -92 -5 -17 -13 -19 -76 -15 -60 4 -71 2 -81 -14 -7 -11
-20 -19 -30 -19 -10 0 -20 -6 -23 -14 -3 -8 -16 -17 -29 -20 -14 -4 -27 -18
-33 -36 -6 -16 -16 -30 -21 -30 -6 0 -8 6 -5 14 11 29 -18 26 -45 -3 -42 -45
-87 -143 -111 -240 -12 -47 -28 -97 -36 -113 -12 -23 -12 -27 0 -22 8 3 28 54
45 117 26 93 37 118 66 147 34 34 35 34 51 15 8 -11 13 -15 10 -9 -10 21 20
23 33 2 8 -14 9 -23 2 -32 -6 -7 -8 -16 -4 -19 3 -4 -1 -7 -9 -7 -12 0 -15 -7
-12 -30 3 -18 1 -30 -6 -30 -11 0 -2 -51 11 -60 4 -3 6 -19 4 -35 -1 -17 1
-33 6 -36 19 -11 -20 -43 -62 -49 -39 -7 -40 -8 -11 -9 18 0 47 6 63 15 17 8
32 14 32 12 1 -2 8 -14 15 -27 8 -14 10 -26 5 -30 -15 -10 -10 -61 7 -71 12
-8 11 -13 -8 -33 -20 -21 -21 -25 -7 -30 8 -4 14 -10 13 -14 -1 -4 1 -18 5
-29 6 -16 13 -20 27 -17 13 4 20 0 20 -10 0 -17 27 -31 54 -28 15 2 17 -1 12
-16 -14 -35 -20 -163 -7 -163 7 0 11 20 11 53 1 56 20 93 44 84 9 -4 17 1 21
14 8 24 27 24 44 0 13 -18 15 -18 36 5 12 13 27 24 33 24 6 0 13 9 17 19 9 29
63 36 122 16 12 -4 25 -6 29 -5 4 1 10 -2 13 -7 3 -4 27 -18 52 -31 48 -23 85
-65 74 -82 -3 -5 6 -22 20 -36 28 -28 27 -46 -1 -23 -14 12 -16 11 -13 -6 3
-14 12 -20 29 -20 34 0 39 33 9 56 -13 10 -20 21 -15 26 5 4 11 2 13 -4 8 -23
25 -14 19 10 -4 19 0 26 18 35 21 9 25 8 30 -11 3 -11 1 -26 -5 -33 -7 -8 -3
-13 13 -17 12 -4 19 -9 15 -13 -3 -3 2 -23 13 -44 13 -26 16 -40 8 -48 -6 -6
-7 -18 -3 -29 5 -10 7 -24 6 -30 -1 -7 4 -10 12 -7 14 5 26 -13 33 -45 5 -24
22 -34 48 -27 25 6 37 26 15 26 -16 0 -36 24 -31 38 2 7 0 11 -5 10 -4 -2 -10
-1 -12 2 -4 5 22 85 41 126 11 23 38 28 38 7 0 -19 44 -37 74 -29 17 4 28 15
31 31 3 14 7 36 10 50 8 40 33 22 45 -33 1 -4 9 -15 17 -24 9 -10 13 -18 10
-18 -4 0 2 -17 13 -37 14 -26 16 -40 9 -49 -6 -7 -9 -21 -7 -31 4 -20 -31 -43
-64 -43 -10 0 -16 -4 -13 -10 5 -9 -7 -14 -26 -12 -4 1 -21 -3 -38 -8 -19 -5
-31 -5 -31 1 0 5 -7 9 -15 9 -18 0 -20 -41 -3 -58 20 -20 75 -14 97 9 11 12
24 18 30 14 6 -3 11 -2 11 4 0 5 9 13 20 16 11 3 20 11 20 17 0 15 47 68 54
61 3 -4 6 0 7 8 0 8 2 35 5 61 3 39 0 50 -15 60 -18 11 -18 12 3 29 17 14 19
21 10 36 -13 22 -63 30 -65 11 -1 -7 -1 -17 0 -21 1 -5 -3 -6 -8 -2 -6 3 -8
12 -4 20 3 10 -2 15 -16 15 -12 0 -33 11 -47 25 -18 18 -32 24 -46 20 -12 -4
-27 0 -38 10 -22 20 -96 30 -105 15 -4 -6 -15 -8 -26 -5 -14 5 -17 2 -13 -8 3
-8 1 -18 -5 -21 -5 -4 -12 2 -15 11 -4 10 -24 31 -45 47 -30 22 -38 33 -34 50
3 11 6 33 6 48 l0 27 26 -18 c33 -24 96 -37 105 -22 12 19 47 12 53 -10 4 -12
11 -18 20 -15 8 3 17 6 19 6 2 0 4 7 4 15 0 8 4 15 9 15 5 0 1 16 -8 36 -8 19
-17 30 -19 25 -2 -6 -10 -11 -18 -11 -16 0 -19 26 -4 35 6 3 10 10 10 15 0 10
-40 7 -60 -5 -19 -12 -71 -14 -68 -3 2 5 7 9 11 8 14 -2 37 28 37 48 0 15 5
19 19 15 16 -4 21 2 26 34 12 75 17 99 32 166 8 37 18 67 21 67 4 0 6 -35 4
-77 -3 -103 17 -132 49 -70 12 22 12 22 -10 3 l-21 -19 0 91 c0 72 -3 92 -14
92 -18 0 -31 -36 -57 -155 -23 -110 -30 -126 -30 -75 0 19 -4 89 -7 155 l-7
120 -8 -75 c-10 -89 -39 -130 -91 -130 -41 0 -65 15 -40 24 9 3 15 9 12 12 -3
2 -17 0 -31 -5 -22 -9 -28 -7 -37 9 -6 11 -7 20 -3 20 4 0 -4 10 -16 21 l-23
22 24 24 c14 13 42 30 64 38 21 8 32 14 23 15 -24 0 -79 -24 -114 -51 -16 -12
-27 -19 -23 -14 4 4 -1 20 -11 34 -21 31 -34 64 -22 57 12 -8 19 36 10 60 -7
17 -8 17 -8 -3 -1 -28 -21 -31 -21 -3 0 23 -15 27 -24 5 -8 -23 -25 -18 -24 8
0 45 9 68 29 76 20 7 20 9 5 24 -13 12 -31 73 -34 113 -1 13 -9 11 -46 -7z
m-495 -252 c-11 -18 -30 -42 -42 -53 l-22 -19 13 25 c19 38 61 92 67 86 3 -3
-4 -20 -16 -39z m102 -167 c3 -11 1 -20 -4 -20 -5 0 -9 7 -9 15 0 8 -5 15 -11
15 -5 0 -7 5 -4 10 9 14 21 5 28 -20z m55 -22 c-2 -28 -8 -53 -14 -55 -15 -5
-27 28 -15 40 7 7 6 17 -1 30 -7 15 -7 22 3 28 26 16 30 9 27 -43z m732 -27
c0 -24 -4 -29 -20 -28 -24 2 -25 6 -4 35 20 29 24 28 24 -7z m-680 15 c0 -2
-7 -9 -15 -16 -12 -10 -15 -10 -15 4 0 9 7 16 15 16 8 0 15 -2 15 -4z m865
-562 c0 -26 -4 -29 -30 -29 -37 0 -49 32 -13 37 13 2 22 9 20 17 -1 7 3 11 10
9 7 -3 13 -18 13 -34z m155 21 c0 -8 -7 -15 -15 -15 -8 0 -15 7 -15 15 0 8 7
15 15 15 8 0 15 -7 15 -15z m-200 -279 c0 -2 -7 -7 -16 -10 -8 -3 -12 -2 -9 4
6 10 25 14 25 6z"/>
<path d="M2223 1291 c-2 -42 -84 -291 -109 -328 l-17 -26 -12 24 c-18 33 -35
131 -35 196 0 30 -4 53 -10 53 -7 0 -9 -22 -5 -62 20 -197 48 -258 91 -193 19
29 102 273 110 326 3 20 2 39 -2 42 -5 3 -10 -11 -11 -32z"/>
<path d="M2400 1264 c-23 -14 -23 -14 -3 -9 23 6 23 6 20 -107 l-2 -113 -37
-20 c-20 -11 -39 -17 -41 -15 -6 6 19 226 27 238 2 4 1 14 -5 22 -7 13 -9 12
-9 -1 0 -9 -14 -22 -30 -29 -17 -7 -33 -17 -36 -22 -4 -5 8 -3 24 6 17 9 32
16 34 16 2 0 -4 -57 -12 -126 -14 -117 -17 -127 -43 -146 -15 -11 -27 -25 -27
-31 0 -6 10 -1 23 11 28 27 34 27 40 5 3 -11 5 -8 6 9 1 22 10 32 42 48 23 12
42 20 44 18 1 -2 7 -16 12 -33 5 -16 14 -30 19 -30 10 1 32 85 32 125 0 32 -4
20 -19 -55 -11 -54 -13 -57 -19 -30 -3 17 -7 86 -9 155 -1 68 -3 125 -4 127
-1 1 -13 -5 -27 -13z"/>
<path d="M2740 1212 l5 -67 3 59 c2 32 -1 63 -5 67 -4 4 -6 -22 -3 -59z"/>
<path d="M130 1259 c0 -6 -13 -27 -30 -46 -17 -18 -30 -44 -29 -56 1 -17 3
-15 10 9 5 17 18 39 29 49 20 18 20 18 20 -63 0 -64 -4 -89 -20 -114 -22 -37
-26 -63 -9 -74 7 -4 9 0 5 14 -7 21 11 72 26 72 11 0 10 -74 -1 -85 -6 -6 -4
-15 5 -23 11 -10 14 -10 14 1 0 7 14 26 31 43 72 67 114 220 73 270 -15 19
-16 19 -8 -1 15 -43 15 -75 0 -127 -16 -55 -71 -148 -87 -148 -5 0 -9 20 -9
45 0 29 4 45 13 45 8 0 7 3 -3 10 -18 11 -28 144 -11 164 9 10 8 15 -4 20 -8
3 -15 0 -15 -5z"/>
<path d="M2654 1245 c-43 -66 -61 -237 -28 -270 9 -9 24 -15 33 -13 18 4 57
69 66 113 3 17 -3 7 -15 -21 -24 -61 -55 -93 -72 -76 -29 29 -11 210 28 269 8
13 12 23 9 23 -2 0 -12 -11 -21 -25z"/>
<path d="M2697 1263 c-7 -12 -20 -79 -14 -73 6 6 27 80 22 80 -2 0 -6 -3 -8
-7z"/>
<path d="M525 1251 c6 -10 -1 -22 -21 -39 -18 -14 -21 -20 -8 -13 35 17 49 40
34 54 -10 10 -11 9 -5 -2z"/>
<path d="M1611 1253 c4 -23 -5 -34 -38 -52 -21 -11 -33 -20 -27 -21 19 0 79
45 82 63 2 9 -1 17 -7 17 -6 0 -10 -3 -10 -7z"/>
<path d="M408 1230 c-37 -20 -70 -59 -82 -96 -8 -28 16 -54 50 -54 l26 0 -30
-25 c-35 -29 -65 -87 -56 -109 17 -44 118 10 219 115 l70 74 -80 -76 c-133
-127 -233 -160 -181 -61 20 39 65 78 110 97 21 9 36 18 33 21 -3 3 -19 -2 -37
-11 -43 -22 -104 -17 -108 10 -4 30 38 86 83 112 49 28 34 30 -17 3z"/>
<path d="M2506 1225 c-10 -27 -7 -30 9 -9 13 17 14 13 8 -42 -7 -71 3 -137 19
-132 6 2 18 15 26 29 l14 24 -21 -25 -21 -25 -1 30 c-1 17 -2 59 -3 94 -1 62
-16 91 -30 56z"/>
<path d="M654 1200 c1 -8 10 -16 21 -17 15 -1 15 0 3 3 -9 3 -19 11 -21 17 -2
7 -3 5 -3 -3z"/>
<path d="M2491 1174 c0 -11 3 -14 6 -6 3 7 2 16 -1 19 -3 4 -6 -2 -5 -13z"/>
<path d="M2482 1130 c0 -14 2 -19 5 -12 2 6 2 18 0 25 -3 6 -5 1 -5 -13z"/>
<path d="M2731 1124 c0 -11 3 -14 6 -6 3 7 2 16 -1 19 -3 4 -6 -2 -5 -13z"/>
<path d="M700 950 c8 -5 20 -10 25 -10 6 0 3 5 -5 10 -8 5 -19 10 -25 10 -5 0
-3 -5 5 -10z"/>
<path d="M1148 572 c3 -24 1 -33 -7 -28 -6 4 -11 13 -11 20 0 16 -27 40 -32
29 -2 -4 -1 -30 3 -58 6 -49 6 -49 8 -10 l2 40 20 -37 c11 -21 24 -38 29 -38
15 0 12 107 -3 113 -9 3 -12 -5 -9 -31z"/>
<path d="M801 594 c-1 -10 3 -25 26 -94 3 -11 8 -9 17 9 l13 23 7 -23 c7 -24
8 -24 21 7 21 47 30 88 18 81 -6 -4 -14 -24 -18 -44 l-7 -38 -13 25 -14 25
-10 -25 c-5 -14 -10 -18 -11 -10 -1 20 -28 78 -29 64z"/>
<path d="M1250 568 c0 -59 10 -78 39 -77 23 2 24 2 4 6 -14 3 -23 12 -23 23 0
11 9 20 23 23 l22 4 -22 2 c-16 1 -23 7 -23 20 0 12 8 21 23 24 16 3 13 5 -10
6 -31 1 -33 -1 -33 -31z"/>
</g>
</svg>
