<?xml version="1.0" standalone="no"?>
<!DOCTYPE svg PUBLIC "-//W3C//DTD SVG 20010904//EN"
 "http://www.w3.org/TR/2001/REC-SVG-20010904/DTD/svg10.dtd">
<svg version="1.0" xmlns="http://www.w3.org/2000/svg"
 width="600.000000pt" height="600.000000pt" viewBox="0 0 600.000000 600.000000"
 preserveAspectRatio="xMidYMid meet">

<g transform="translate(0.000000,600.000000) scale(0.100000,-0.100000)"
fill="#000000" stroke="none">
<path d="M4397 4073 c-10 -9 -9 -43 1 -43 4 0 13 5 19 11 17 17 27 -31 19 -94
-9 -80 -28 -147 -146 -502 -168 -511 -246 -696 -296 -703 -25 -4 -49 45 -88
179 -45 156 -96 538 -96 720 0 60 -3 80 -12 77 -18 -6 -22 -190 -8 -353 27
-320 94 -599 154 -640 35 -26 66 -18 111 28 35 35 53 69 105 202 72 185 250
714 286 853 31 121 33 219 4 250 -21 22 -41 28 -53 15z"/>
<path d="M1576 3887 c-3 -12 -6 -37 -6 -54 0 -27 -13 -46 -78 -111 -87 -87
-131 -162 -134 -231 -1 -33 3 -47 17 -57 22 -17 44 -18 65 -3 12 8 10 9 -8 4
-30 -9 -52 10 -52 44 0 40 53 140 105 199 85 95 80 109 82 -216 l2 -285 -54
-59 c-91 -98 -119 -235 -59 -295 19 -19 34 -23 79 -23 l57 0 -4 -42 c-3 -37 0
-43 17 -43 16 0 21 9 27 50 5 39 13 54 35 70 152 109 278 309 349 553 53 183
52 302 -3 411 -40 77 -91 104 -189 98 -57 -3 -86 -11 -144 -40 -39 -21 -73
-37 -76 -37 -2 0 -4 18 -4 39 0 45 -15 62 -24 28z m346 -27 c31 -24 66 -104
78 -176 25 -151 -69 -448 -205 -654 -45 -68 -140 -168 -150 -158 -12 12 -25
291 -14 304 13 16 94 44 127 44 14 0 34 -8 44 -17 15 -13 21 -14 31 -4 9 10 8
15 -7 27 -26 18 -79 18 -145 -2 -29 -8 -55 -13 -58 -10 -8 7 -22 293 -23 443
0 122 0 122 28 141 34 24 109 63 142 73 51 15 126 10 152 -11z m-339 -837 c12
-182 11 -192 -18 -199 -113 -28 -130 138 -28 274 13 17 28 32 32 32 4 0 11
-48 14 -107z"/>
<path d="M2726 3873 c-3 -10 -8 -40 -12 -68 -5 -38 -15 -60 -45 -92 -43 -46
-79 -112 -79 -143 0 -27 15 -26 17 2 2 21 66 123 86 135 6 3 7 -13 3 -43 -11
-85 -25 -294 -30 -439 -18 -496 -18 -515 -3 -515 8 0 18 8 22 18 3 9 10 138
15 286 l9 269 27 28 c34 36 107 67 176 75 52 6 55 5 81 -25 30 -37 42 -99 33
-179 -5 -49 -11 -60 -39 -81 -64 -49 -194 -188 -215 -232 -42 -86 -20 -139 55
-139 74 0 167 131 218 304 25 88 26 90 108 166 45 42 111 103 147 134 70 62
80 76 56 76 -8 0 -72 -54 -142 -120 -70 -66 -130 -120 -133 -120 -3 0 -5 19
-3 43 5 59 -13 122 -46 158 -33 37 -96 48 -168 30 -25 -7 -48 -10 -50 -8 -2 1
13 25 33 53 75 103 133 267 118 333 -15 67 -90 83 -170 37 -24 -14 -46 -26
-50 -26 -3 0 -3 23 1 50 4 33 3 50 -4 50 -6 0 -13 -8 -16 -17z m193 -77 c28
-59 -20 -207 -108 -333 -56 -81 -89 -118 -96 -111 -7 6 12 332 21 380 4 18 20
36 52 56 81 51 109 53 131 8z m65 -798 c-47 -146 -141 -270 -179 -238 -23 19
-18 60 17 120 34 61 169 201 176 182 2 -7 -4 -36 -14 -64z"/>
<path d="M1825 2488 c24 -93 54 -183 62 -185 6 -2 18 15 26 39 l15 43 11 -30
c6 -16 14 -36 16 -42 10 -28 25 -10 41 45 9 31 22 78 29 105 11 37 11 47 1 47
-7 0 -20 -30 -30 -70 -10 -39 -22 -73 -26 -75 -5 -3 -14 11 -20 30 -14 42 -31
41 -44 -3 -5 -18 -12 -32 -15 -32 -4 0 -15 32 -26 72 -11 39 -26 73 -33 76 -9
3 -11 -3 -7 -20z"/>
<path d="M2180 2405 c0 -63 4 -105 10 -105 6 0 10 42 10 105 0 63 -4 105 -10
105 -6 0 -10 -42 -10 -105z"/>
<path d="M2340 2405 c0 -63 4 -105 10 -105 6 0 10 33 10 78 1 71 2 76 16 57 9
-11 29 -46 45 -77 16 -32 34 -58 39 -58 6 0 10 43 10 105 0 63 -4 105 -10 105
-6 0 -10 -33 -10 -77 l-1 -78 -42 77 c-23 43 -48 78 -54 78 -10 0 -13 -28 -13
-105z"/>
<path d="M2620 2405 l0 -105 50 0 c28 0 50 5 50 10 0 6 -18 10 -41 10 l-40 0
3 38 c3 35 5 37 41 40 50 4 48 22 -3 22 -39 0 -40 1 -40 35 0 34 1 35 40 35
22 0 40 5 40 10 0 6 -22 10 -50 10 l-50 0 0 -105z"/>
<path d="M3044 2485 c-22 -33 -10 -61 36 -85 44 -23 52 -32 44 -53 -12 -33
-58 -30 -69 4 -7 23 -25 25 -25 4 0 -22 37 -55 60 -55 28 0 62 37 58 63 -2 12
-19 32 -38 44 -58 38 -61 42 -50 63 15 28 48 25 62 -5 13 -29 28 -33 28 -7 0
50 -78 70 -106 27z"/>
<path d="M3290 2405 c0 -63 4 -105 10 -105 6 0 10 23 10 50 l0 50 35 0 35 0 0
-50 c0 -27 5 -50 10 -50 6 0 10 42 10 105 0 63 -4 105 -10 105 -5 0 -10 -20
-10 -45 0 -45 0 -45 -35 -45 -35 0 -35 0 -35 45 0 25 -4 45 -10 45 -6 0 -10
-42 -10 -105z"/>
<path d="M3575 2488 c-71 -63 -25 -188 70 -188 93 0 141 115 76 181 -38 38
-106 41 -146 7z m123 -16 c13 -10 25 -33 28 -54 6 -32 2 -41 -25 -69 -27 -26
-37 -30 -64 -25 -37 7 -77 47 -77 77 0 72 82 114 138 71z"/>
<path d="M3890 2405 c0 -63 4 -105 10 -105 6 0 10 18 10 40 0 34 3 40 21 40
52 0 89 52 68 93 -16 31 -28 37 -71 37 l-38 0 0 -105z m78 73 c22 -22 14 -58
-14 -68 -35 -14 -44 -6 -44 41 0 34 3 39 23 39 13 0 28 -5 35 -12z"/>
</g>
</svg>
